<svg width="15" height="13" viewBox="0 0 15 13" fill="none" xmlns="http://www.w3.org/2000/svg">
<path d="M3.0789 4.90057V9H1.11229V1.90909H2.98658V3.16016H3.06967C3.22663 2.74775 3.48977 2.42152 3.85909 2.18146C4.22841 1.93833 4.67621 1.81676 5.20248 1.81676C5.69491 1.81676 6.12424 1.92448 6.49048 2.13991C6.85672 2.35535 7.1414 2.66312 7.34453 3.06321C7.54765 3.46023 7.64922 3.93419 7.64922 4.48508V9H5.6826V4.83594C5.68568 4.40199 5.57488 4.06345 5.35021 3.82031C5.12554 3.5741 4.81624 3.45099 4.4223 3.45099C4.15762 3.45099 3.92372 3.50793 3.7206 3.6218C3.52055 3.73568 3.36359 3.90187 3.24971 4.12038C3.13892 4.33582 3.08198 4.59588 3.0789 4.90057Z" fill="white"/>
<rect x="5.68274" y="8.41849" width="1.95172" height="3.17386" fill="white"/>
<rect x="1.11423" y="8.35114" width="1.96463" height="3.24121" fill="white"/>
<path d="M7.63215 11.586V1.836H9.57107V3.02705H9.65879C9.74496 2.83624 9.8696 2.64235 10.0327 2.44538C10.1989 2.24533 10.4143 2.07914 10.679 1.9468C10.9468 1.81138 11.2792 1.74367 11.6762 1.74367C12.1932 1.74367 12.6703 1.87909 13.1073 2.14992C13.5443 2.41768 13.8936 2.82239 14.1552 3.36406C14.4168 3.90264 14.5476 4.57819 14.5476 5.39069C14.5476 6.18165 14.4199 6.8495 14.1645 7.39424C13.9121 7.93591 13.5674 8.34677 13.1304 8.62684C12.6964 8.90383 12.2102 9.04232 11.6716 9.04232C11.2899 9.04232 10.9652 8.97923 10.6975 8.85305C10.4328 8.72686 10.2158 8.56836 10.0466 8.37755C9.8773 8.18366 9.74804 7.98823 9.65879 7.79126H9.59877V11.586H7.63215ZM9.55722 5.38146C9.55722 5.80309 9.6157 6.17087 9.73265 6.48479C9.8496 6.79871 10.0189 7.04339 10.2405 7.21881C10.4621 7.39116 10.7313 7.47734 11.0483 7.47734C11.3684 7.47734 11.6393 7.38962 11.8608 7.2142C12.0824 7.03569 12.2502 6.78948 12.364 6.47556C12.481 6.15856 12.5395 5.79386 12.5395 5.38146C12.5395 4.97213 12.4825 4.61204 12.3687 4.3012C12.2548 3.99036 12.0871 3.74722 11.8655 3.5718C11.6439 3.39637 11.3715 3.30866 11.0483 3.30866C10.7283 3.30866 10.4574 3.39329 10.2358 3.56256C10.0173 3.73183 9.8496 3.97189 9.73265 4.28273C9.6157 4.59358 9.55722 4.95982 9.55722 5.38146Z" fill="black"/>
</svg>
