<?xml version="1.0" encoding="utf-8"?>
<!-- Generator: Adobe Illustrator 19.2.1, SVG Export Plug-In . SVG Version: 6.00 Build 0)  -->
<svg version="1.1" id="layer" xmlns="http://www.w3.org/2000/svg" xmlns:xlink="http://www.w3.org/1999/xlink" x="0px" y="0px"
	 viewBox="0 0 652 652" style="enable-background:new 0 0 652 652;" xml:space="preserve">
<path d="M301.1,292.2h-21.5v54.2c0,14.4-7.4,24.8-21.5,24.8c-14.2,0-21.3-7.4-21.3-24.8v-54.2h-21.5V351c0,26.2,13.4,40.3,37.6,40.3
	c13.6,0,22.3-6.5,27-12.3v11.2h21.5L301.1,292.2L301.1,292.2z M471.7,291.1c-27.8,0-50.1,22.6-50.1,50.1c0,27.8,22.6,50.1,50.1,50.1
	c27.8,0,50.1-22.6,50.1-50.1C522.1,313.4,499.5,291.1,471.7,291.1z M500.6,341.2c0,15.8-12.8,28.6-28.6,28.6
	c-15.8,0-28.6-12.8-28.6-28.6c0-15.8,12.8-28.6,28.6-28.6S500.6,325.4,500.6,341.2z M370.3,291.1c-7.9,0-19.6,1.6-28.6,11.4v-10.4
	h-21.5v98.1h21.5v-56.7c0-11.7,9.5-21,21-21c2.7,0,5.2,0.5,7.6,1.4V291.1z M192.7,381.8c-6.3,6.3-14.4,9.5-23.4,9.5
	c-8.7,0-17.2-3.5-23.4-9.5c-6.3-6.3-9.5-14.4-9.5-23.4h20.4c0,3.3,1.4,6.5,3.5,8.7c2.5,2.5,5.4,3.5,8.7,3.5c3.3,0,6.5-1.4,8.7-3.5
	c4.9-4.9,4.9-12.5,0.3-17.4c-3-2.5-5.2-2.7-9-3.5c-5.2-1.1-12-2.5-19.1-9.5c-10.4-10.4-10.4-27.5,0-37.9c10.4-10.4,27.5-10.4,37.9,0
	c1.1,1.1,1.9,2.2,3,3.5l-13.6,13.6c-2.2-2.5-4.1-3.8-6.8-4.1c-2.2-0.5-4.4,0-5.7,1.6c-1.1,1.1-1.9,2.7-1.9,4.4s0.5,3.3,1.9,4.4
	c2.7,2.7,4.6,3.3,8.7,3.8c4.6,0.8,11.2,2.2,18.5,8.4l0.5,0.5C205.5,348,205.5,369,192.7,381.8z M100.8,390.3h21.5v-49
	c0-27.8-22.6-50.1-50.1-50.1s-50.1,22.3-50.1,50.1s22.6,50.1,50.1,50.1c9.5,0,20.2-2.7,28.6-12.3V390.3z M72.2,369.8
	c-15.8,0-28.6-12.8-28.6-28.6c0-15.8,12.8-28.6,28.6-28.6s28.6,12.8,28.6,28.6C100.8,357,88,369.8,72.2,369.8z M579,312.6
	c-12,0-21.5,9.5-21.5,21.5v56.1H536v-56.1c0-23.7,19.3-43.1,43.1-43.1c23.7,0,43.1,19.3,43.1,43.1v56.1h-21.5v-56.1
	C600.6,322.1,591,312.6,579,312.6z M386.1,292.2h11.2h10.4v98.1h-21.5L386.1,292.2L386.1,292.2z M411.5,266.6
	c0,8.2-6.5,14.7-14.7,14.7c-8.2,0-14.7-6.5-14.7-14.7c0-8.2,6.5-14.7,14.7-14.7C404.9,251.8,411.5,258.4,411.5,266.6z"/>
</svg>
