<svg version="1.2" xmlns="http://www.w3.org/2000/svg" viewBox="0 0 1498 1504" width="1498" height="1504">
	<title>2019_HCA_logo-svg</title>
	<style>
		.s0 { fill: #000000 } 
	</style>
	<g id="layer4">
		<path id="path982" class="s0" d="m681.8 22.6v408.3c-5 174.7-134.7 251.2-252 252.2h-408.5c-11.2-1.2-22.7-1.7-19.8-27.5 18.7-127.4 101.2-166.7 208.5-171.7h167.5c58.6-0.7 112.8-49.9 110.1-110.2v-193.2c3.2-100 82.6-166.5 168.5-179.5 16.7-2.8 24.3 5.7 25.7 21.6zm-659 797.3h408c174.6 5.1 251 134.8 252 252.2v408.8c-1.2 11.2-1.7 22.7-27.5 19.8-127.3-18.7-166.5-101.2-171.5-208.7v-167.5c-0.7-58.6-49.9-112.9-110.1-110.2h-193.1c-100-3.2-166.4-82.7-179.4-168.6-2.8-16.8 5.7-24.3 21.6-25.8zm793.5 661.5v-408.3c5-174.7 134.7-251.1 251.9-252.1h408.5c11.2 1.1 22.8 1.7 19.9 27.5-18.7 127.3-101.2 166.6-208.6 171.7h-167.4c-58.6 0.6-112.8 49.9-110.1 110.1v193.3c-3.2 100-82.6 166.5-168.5 179.5-16.7 2.8-24.3-5.7-25.7-21.7zm654.7-799.4h-408c-174.5-5.1-251-134.8-251.9-252.2v-408.8c1.1-11.2 1.7-22.7 27.5-19.9 127.2 18.7 166.5 101.3 171.5 208.8v167.5c0.7 58.6 49.9 112.9 110.1 110.2h193.1c100 3.2 166.4 82.6 179.4 168.6 2.8 16.8-5.7 24.3-21.7 25.8zm-851.6 46.7c41.4-30.4 78.5-63.3 103.1-103.2 17-21.6 33.9-21.3 50.8 0 25.9 38.7 56.5 73.7 99.1 99.2 29.1 20.9 23.6 39 0 55.7-38.1 27.4-69.7 58.9-94.6 94.6-18.9 22.9-37.9 24.9-56.9 0-28.5-36.2-58.1-71.7-99.6-99.7-17.6-12.2-26.7-26.1-1.9-46.6z"/>
	</g>
</svg>