<svg width="45" height="45" viewBox="0 0 45 45" fill="none" xmlns="http://www.w3.org/2000/svg">
<path d="M20.4555 21V13.9091H22.3298V15.1602H22.4129C22.5606 14.7447 22.8068 14.4169 23.1515 14.1768C23.4962 13.9368 23.9086 13.8168 24.3888 13.8168C24.875 13.8168 25.289 13.9383 25.6306 14.1815C25.9722 14.4215 26.2 14.7478 26.3138 15.1602H26.3877C26.5323 14.7539 26.7939 14.4292 27.1725 14.1861C27.5541 13.9399 28.005 13.8168 28.5251 13.8168C29.1868 13.8168 29.7239 14.0276 30.1363 14.4492C30.5518 14.8678 30.7595 15.4618 30.7595 16.2312V21H28.7975V16.619C28.7975 16.225 28.6929 15.9296 28.4836 15.7326C28.2743 15.5356 28.0127 15.4371 27.6988 15.4371C27.3418 15.4371 27.0632 15.551 26.8632 15.7788C26.6631 16.0034 26.5631 16.3004 26.5631 16.6697V21H24.6565V16.5774C24.6565 16.2296 24.5565 15.9527 24.3564 15.7464C24.1595 15.5402 23.8994 15.4371 23.5763 15.4371C23.3577 15.4371 23.1608 15.4925 22.9853 15.6033C22.813 15.7111 22.676 15.8634 22.5745 16.0604C22.4729 16.2543 22.4221 16.482 22.4221 16.7436V21H20.4555ZM33.9568 21.1385C33.2397 21.1385 32.6195 20.9862 32.0963 20.6815C31.5762 20.3737 31.1746 19.9459 30.8914 19.3981C30.6083 18.8472 30.4667 18.2086 30.4667 17.4822C30.4667 16.7498 30.6083 16.1096 30.8914 15.5618C31.1746 15.0109 31.5762 14.5831 32.0963 14.2784C32.6195 13.9706 33.2397 13.8168 33.9568 13.8168C34.6739 13.8168 35.2925 13.9706 35.8126 14.2784C36.3358 14.5831 36.739 15.0109 37.0221 15.5618C37.3053 16.1096 37.4468 16.7498 37.4468 17.4822C37.4468 18.2086 37.3053 18.8472 37.0221 19.3981C36.739 19.9459 36.3358 20.3737 35.8126 20.6815C35.2925 20.9862 34.6739 21.1385 33.9568 21.1385ZM33.966 19.6151C34.2922 19.6151 34.5646 19.5227 34.7831 19.3381C35.0016 19.1503 35.1663 18.8949 35.2771 18.5717C35.391 18.2486 35.4479 17.8808 35.4479 17.4684C35.4479 17.056 35.391 16.6882 35.2771 16.3651C35.1663 16.0419 35.0016 15.7865 34.7831 15.5987C34.5646 15.411 34.2922 15.3171 33.966 15.3171C33.6367 15.3171 33.3597 15.411 33.135 15.5987C32.9135 15.7865 32.7457 16.0419 32.6318 16.3651C32.521 16.6882 32.4657 17.056 32.4657 17.4684C32.4657 17.8808 32.521 18.2486 32.6318 18.5717C32.7457 18.8949 32.9135 19.1503 33.135 19.3381C33.3597 19.5227 33.6367 19.6151 33.966 19.6151Z" fill="white"/>
<path d="M9.75142 16.9006V21H7.7848V13.9091H9.65909V15.1602H9.74219C9.89915 14.7478 10.1623 14.4215 10.5316 14.1815C10.9009 13.9383 11.3487 13.8168 11.875 13.8168C12.3674 13.8168 12.7968 13.9245 13.163 14.1399C13.5292 14.3554 13.8139 14.6631 14.017 15.0632C14.2202 15.4602 14.3217 15.9342 14.3217 16.4851V21H12.3551V16.8359C12.3582 16.402 12.2474 16.0634 12.0227 15.8203C11.7981 15.5741 11.4888 15.451 11.0948 15.451C10.8301 15.451 10.5962 15.5079 10.3931 15.6218C10.1931 15.7357 10.0361 15.9019 9.92223 16.1204C9.81143 16.3358 9.7545 16.5959 9.75142 16.9006ZM17.5156 21.1385C16.7985 21.1385 16.1783 20.9862 15.6551 20.6815C15.135 20.3737 14.7334 19.9459 14.4502 19.3981C14.1671 18.8472 14.0255 18.2086 14.0255 17.4822C14.0255 16.7498 14.1671 16.1096 14.4502 15.5618C14.7334 15.0109 15.135 14.5831 15.6551 14.2784C16.1783 13.9706 16.7985 13.8168 17.5156 13.8168C18.2326 13.8168 18.8513 13.9706 19.3714 14.2784C19.8946 14.5831 20.2977 15.0109 20.5809 15.5618C20.864 16.1096 21.0056 16.7498 21.0056 17.4822C21.0056 18.2086 20.864 18.8472 20.5809 19.3981C20.2977 19.9459 19.8946 20.3737 19.3714 20.6815C18.8513 20.9862 18.2326 21.1385 17.5156 21.1385ZM17.5248 19.6151C17.851 19.6151 18.1234 19.5227 18.3419 19.3381C18.5604 19.1503 18.7251 18.8949 18.8359 18.5717C18.9497 18.2486 19.0067 17.8808 19.0067 17.4684C19.0067 17.056 18.9497 16.6882 18.8359 16.3651C18.7251 16.0419 18.5604 15.7865 18.3419 15.5987C18.1234 15.411 17.851 15.3171 17.5248 15.3171C17.1955 15.3171 16.9185 15.411 16.6938 15.5987C16.4722 15.7865 16.3045 16.0419 16.1906 16.3651C16.0798 16.6882 16.0244 17.056 16.0244 17.4684C16.0244 17.8808 16.0798 18.2486 16.1906 18.5717C16.3045 18.8949 16.4722 19.1503 16.6938 19.3381C16.9185 19.5227 17.1955 19.6151 17.5248 19.6151Z" fill="white"/>
<rect x="12.7578" y="21" width="1.5625" height="1.57715" fill="white"/>
<rect x="24.7665" y="21" width="1.79877" height="1.42053" fill="white"/>
<rect x="28.8678" y="21" width="1.89389" height="1.99493" fill="white"/>
<path d="M7.7848 30.6591V20.9091H9.72372V22.1001H9.81143C9.89761 21.9093 10.0223 21.7154 10.1854 21.5185C10.3516 21.3184 10.567 21.1522 10.8317 21.0199C11.0994 20.8845 11.4318 20.8168 11.8288 20.8168C12.3459 20.8168 12.8229 20.9522 13.2599 21.223C13.697 21.4908 14.0463 21.8955 14.3079 22.4371C14.5695 22.9757 14.7003 23.6513 14.7003 24.4638C14.7003 25.2547 14.5726 25.9226 14.3171 26.4673C14.0647 27.009 13.7201 27.4199 13.283 27.6999C12.8491 27.9769 12.3628 28.1154 11.8242 28.1154C11.4426 28.1154 11.1179 28.0523 10.8501 27.9261C10.5855 27.8 10.3685 27.6415 10.1992 27.4506C10.0299 27.2567 9.90069 27.0613 9.81143 26.8643H9.75142V30.6591H7.7848ZM9.70987 24.4545C9.70987 24.8762 9.76835 25.244 9.8853 25.5579C10.0022 25.8718 10.1715 26.1165 10.3931 26.2919C10.6147 26.4643 10.884 26.5504 11.201 26.5504C11.5211 26.5504 11.7919 26.4627 12.0135 26.2873C12.2351 26.1088 12.4028 25.8626 12.5167 25.5487C12.6336 25.2317 12.6921 24.867 12.6921 24.4545C12.6921 24.0452 12.6352 23.6851 12.5213 23.3743C12.4074 23.0634 12.2397 22.8203 12.0181 22.6449C11.7965 22.4695 11.5241 22.3817 11.201 22.3817C10.8809 22.3817 10.6101 22.4664 10.3885 22.6357C10.17 22.8049 10.0022 23.045 9.8853 23.3558C9.76835 23.6667 9.70987 24.0329 9.70987 24.4545ZM17.6552 28.1385C16.9381 28.1385 16.318 27.9862 15.7948 27.6815C15.2746 27.3737 14.873 26.9459 14.5899 26.3981C14.3067 25.8472 14.1651 25.2086 14.1651 24.4822C14.1651 23.7498 14.3067 23.1096 14.5899 22.5618C14.873 22.0109 15.2746 21.5831 15.7948 21.2784C16.318 20.9706 16.9381 20.8168 17.6552 20.8168C18.3723 20.8168 18.9909 20.9706 19.511 21.2784C20.0342 21.5831 20.4374 22.0109 20.7205 22.5618C21.0037 23.1096 21.1453 23.7498 21.1453 24.4822C21.1453 25.2086 21.0037 25.8472 20.7205 26.3981C20.4374 26.9459 20.0342 27.3737 19.511 27.6815C18.9909 27.9862 18.3723 28.1385 17.6552 28.1385ZM17.6644 26.6151C17.9907 26.6151 18.263 26.5227 18.4815 26.3381C18.7001 26.1503 18.8647 25.8949 18.9755 25.5717C19.0894 25.2486 19.1463 24.8808 19.1463 24.4684C19.1463 24.056 19.0894 23.6882 18.9755 23.3651C18.8647 23.0419 18.7001 22.7865 18.4815 22.5987C18.263 22.411 17.9907 22.3171 17.6644 22.3171C17.3351 22.3171 17.0581 22.411 16.8335 22.5987C16.6119 22.7865 16.4441 23.0419 16.3303 23.3651C16.2195 23.6882 16.1641 24.056 16.1641 24.4684C16.1641 24.8808 16.2195 25.2486 16.3303 25.5717C16.4441 25.8949 16.6119 26.1503 16.8335 26.3381C17.0581 26.5227 17.3351 26.6151 17.6644 26.6151Z" fill="black"/>
<path d="M20.4555 28V20.9091H22.3298V22.1602H22.4129C22.5606 21.7447 22.8068 21.4169 23.1515 21.1768C23.4962 20.9368 23.9086 20.8168 24.3888 20.8168C24.875 20.8168 25.289 20.9383 25.6306 21.1815C25.9722 21.4215 26.2 21.7478 26.3138 22.1602H26.3877C26.5323 21.7539 26.7939 21.4292 27.1725 21.1861C27.5541 20.9399 28.005 20.8168 28.5251 20.8168C29.1868 20.8168 29.7239 21.0276 30.1363 21.4492C30.5518 21.8678 30.7595 22.4618 30.7595 23.2312V28H28.7975V23.619C28.7975 23.225 28.6929 22.9296 28.4836 22.7326C28.2743 22.5356 28.0127 22.4371 27.6988 22.4371C27.3418 22.4371 27.0632 22.551 26.8632 22.7788C26.6631 23.0034 26.5631 23.3004 26.5631 23.6697V28H24.6565V23.5774C24.6565 23.2296 24.5565 22.9527 24.3564 22.7464C24.1595 22.5402 23.8994 22.4371 23.5763 22.4371C23.3577 22.4371 23.1608 22.4925 22.9853 22.6033C22.813 22.7111 22.676 22.8634 22.5745 23.0604C22.4729 23.2543 22.4221 23.482 22.4221 23.7436V28H20.4555ZM33.9568 28.1385C33.2397 28.1385 32.6195 27.9862 32.0963 27.6815C31.5762 27.3737 31.1746 26.9459 30.8914 26.3981C30.6083 25.8472 30.4667 25.2086 30.4667 24.4822C30.4667 23.7498 30.6083 23.1096 30.8914 22.5618C31.1746 22.0109 31.5762 21.5831 32.0963 21.2784C32.6195 20.9706 33.2397 20.8168 33.9568 20.8168C34.6739 20.8168 35.2925 20.9706 35.8126 21.2784C36.3358 21.5831 36.739 22.0109 37.0221 22.5618C37.3053 23.1096 37.4468 23.7498 37.4468 24.4822C37.4468 25.2086 37.3053 25.8472 37.0221 26.3981C36.739 26.9459 36.3358 27.3737 35.8126 27.6815C35.2925 27.9862 34.6739 28.1385 33.9568 28.1385ZM33.966 26.6151C34.2922 26.6151 34.5646 26.5227 34.7831 26.3381C35.0016 26.1503 35.1663 25.8949 35.2771 25.5717C35.391 25.2486 35.4479 24.8808 35.4479 24.4684C35.4479 24.056 35.391 23.6882 35.2771 23.3651C35.1663 23.0419 35.0016 22.7865 34.7831 22.5987C34.5646 22.411 34.2922 22.3171 33.966 22.3171C33.6367 22.3171 33.3597 22.411 33.135 22.5987C32.9135 22.7865 32.7457 23.0419 32.6318 23.3651C32.521 23.6882 32.4657 24.056 32.4657 24.4684C32.4657 24.8808 32.521 25.2486 32.6318 25.5717C32.7457 25.8949 32.9135 26.1503 33.135 26.3381C33.3597 26.5227 33.6367 26.6151 33.966 26.6151Z" fill="black"/>
<rect x="22.3291" y="20.906" width="0.0917664" height="1.29744" fill="black"/>
<rect x="9.72266" y="20.9648" width="0.03125" height="1.13672" fill="black"/>
</svg>
