<!DOCTYPE svg PUBLIC "-//W3C//DTD SVG 1.1//EN" "http://www.w3.org/Graphics/SVG/1.1/DTD/svg11.dtd">

<!-- Uploaded to: SVG Repo, www.svgrepo.com, Transformed by: SVG Repo Mixer Tools -->
<svg width="800px" height="800px" viewBox="-1.5 0 18 18" id="meteor-icon-kit__solid-redo-s" fill="none" xmlns="http://www.w3.org/2000/svg" stroke="#ffffff" stroke-width="0.00018" transform="matrix(1, 0, 0, 1, 0, 0)">

<g id="SVGRepo_bgCarrier" stroke-width="0"/>

<g id="SVGRepo_tracerCarrier" stroke-linecap="round" stroke-linejoin="round"/>

<g id="SVGRepo_iconCarrier">

<path fill-rule="evenodd" clip-rule="evenodd" d="M8.3787 6.5H7.5C5.29086 6.5 3.5 8.2909 3.5 10.5C3.5 12.7091 5.29086 14.5 7.5 14.5C9.7091 14.5 11.5 12.7091 11.5 10.5C11.5 9.6716 12.1716 9 13 9C13.8284 9 14.5 9.6716 14.5 10.5C14.5 14.366 11.366 17.5 7.5 17.5C3.63401 17.5 0.5 14.366 0.5 10.5C0.5 6.63401 3.63401 3.5 7.5 3.5H8.3787L7.9393 3.06066C7.3536 2.47487 7.3536 1.52513 7.9393 0.93934C8.5251 0.35355 9.4749 0.35355 10.0607 0.93934L13.0607 3.93934C13.6464 4.52513 13.6464 5.47487 13.0607 6.06066L10.0607 9.0607C9.4749 9.6464 8.5251 9.6464 7.9393 9.0607C7.3536 8.4749 7.3536 7.5251 7.9393 6.93934L8.3787 6.5z" fill="#000000"/>

</g>

</svg>